<svg xmlns="http://www.w3.org/2000/svg" width="1em" height="1em" viewBox="0 0 128 128"><g fill="#d7598b"><path d="M123.65 37.62c-6.52-15.27-18.93-24.02-34.19-24.02c-.54 0-1.07 0-1.39.01c-5.56.1-11.11 1.29-16.52 3.55c-3.01 1.27-5.47 2.81-7.54 4.23c-2.07-1.42-4.54-2.97-7.59-4.25c-5.37-2.25-10.92-3.43-16.25-3.52c-.54-.02-1.07-.02-1.75-.02c-15.11 0-27.52 8.75-34.05 24c-3.89 9.06-2.52 19.72-2.01 22.78C3.38 66.45 5.75 72.22 9.63 78c6.68 9.95 16.09 16.32 24.38 21.94c4.69 3.17 9.12 6.17 12.7 9.52c.48.45.95.91 1.42 1.38c.65.63 1.3 1.26 1.95 1.86l.28.32c1.74 2.07 5.84 6.92 12.86 7.35l.78.03l.77-.04c7.01-.42 11.11-5.27 12.86-7.34l.27-.32c.64-.6 1.27-1.21 1.9-1.81c.49-.48.98-.95 1.48-1.42c3.59-3.35 8.02-6.35 12.71-9.53c8.3-5.61 17.7-11.98 24.38-21.94c3.87-5.77 6.25-11.53 7.28-17.62c1.06-6.29 1.08-15.58-2-22.76m-4.74 21.62c-.85 5.11-2.89 10-6.2 14.95c-5.95 8.85-14.39 14.57-22.55 20.1c-4.92 3.33-9.55 6.47-13.54 10.18c-.5.48-1 .96-1.57 1.52c-.59.58-1.19 1.16-1.79 1.72l-.53.55l-.31.36c-1.38 1.63-3.95 4.68-8.05 4.92l-.37.02l-.37-.02c-4.09-.25-6.67-3.29-8.08-4.97l-.28-.32l-.53-.56c-.61-.56-1.22-1.16-1.9-1.81c-.49-.48-.97-.95-1.47-1.41c-3.99-3.71-8.62-6.85-13.54-10.19c-8.16-5.52-16.6-11.24-22.53-20.07c-3.33-4.96-5.36-9.85-6.21-14.96c-.31-1.84-1.69-11.4 1.55-18.96c5.48-12.81 15.34-19.86 27.77-19.86c.59 0 1.05 0 1.62.02c4.49.08 9.24 1.12 13.73 2.99c2.64 1.12 4.8 2.5 6.37 3.58a6.85 6.85 0 0 0 7.74 0c1.57-1.08 3.71-2.46 6.31-3.56c4.6-1.92 9.31-2.94 14.01-3.02h.15c.25-.01.68-.01 1.12-.01c12.52 0 22.44 7.06 27.92 19.88c2.5 5.84 2.39 13.85 1.53 18.93"></path></svg>
